<?xml version="1.0" encoding="utf-8" standalone="no"?>
<!DOCTYPE svg PUBLIC "-//W3C//DTD SVG 1.1//EN"
  "http://www.w3.org/Graphics/SVG/1.1/DTD/svg11.dtd">
<svg xmlns:xlink="http://www.w3.org/1999/xlink" width="360pt" height="360pt" viewBox="0 0 360 360" xmlns="http://www.w3.org/2000/svg" version="1.1">
 <metadata>
  <rdf:RDF xmlns:dc="http://purl.org/dc/elements/1.1/" xmlns:cc="http://creativecommons.org/ns#" xmlns:rdf="http://www.w3.org/1999/02/22-rdf-syntax-ns#">
   <cc:Work>
    <dc:type rdf:resource="http://purl.org/dc/dcmitype/StillImage"/>
    <dc:date>2024-01-26T09:04:52.036491</dc:date>
    <dc:format>image/svg+xml</dc:format>
    <dc:creator>
     <cc:Agent>
      <dc:title>Matplotlib v3.7.2, https://matplotlib.org/</dc:title>
     </cc:Agent>
    </dc:creator>
   </cc:Work>
  </rdf:RDF>
 </metadata>
 <defs>
  <style type="text/css">*{stroke-linejoin: round; stroke-linecap: butt}</style>
 </defs>
 <g id="figure_1">
  <g id="patch_1">
   <path d="M 0 360 
L 360 360 
L 360 0 
L 0 0 
z
" style="fill: #ffffff"/>
  </g>
  <g id="axes_1">
   <g id="patch_2">
    <path d="M 180 333.818182 
C 220.793059 333.818182 259.920831 317.610928 288.765879 288.765879 
C 317.610928 259.920831 333.818182 220.793059 333.818182 180 
C 333.818182 139.206941 317.610928 100.079169 288.765879 71.234121 
C 259.920831 42.389072 220.793059 26.181818 180 26.181818 
C 139.206941 26.181818 100.079169 42.389072 71.234121 71.234121 
C 42.389072 100.079169 26.181818 139.206941 26.181818 180 
C 26.181818 220.793059 42.389072 259.920831 71.234121 288.765879 
C 100.079169 317.610928 139.206941 333.818182 180 333.818182 
z
" clip-path="url(#pca89526547)" style="fill: #ffffff; opacity: 0.5"/>
   </g>
   <g id="line2d_1">
    <path d="M 72.777472 180.088772 
L 74.278137 175.614591 
L 76.229002 169.003434 
L 80.655965 153.677956 
L 81.93153 150.133952 
L 82.981996 147.818937 
L 83.807361 146.472146 
L 84.482661 145.723711 
L 85.082927 145.350857 
L 85.60816 145.26554 
L 86.133392 145.416635 
L 86.658625 145.813721 
L 87.258891 146.57899 
L 87.934191 147.847946 
L 88.684523 149.774347 
L 89.509889 152.525509 
L 90.485322 156.620637 
L 91.535787 162.013315 
L 92.811353 169.817679 
L 94.312018 180.484602 
L 96.412949 197.222407 
L 100.089579 226.660577 
L 101.515211 236.232793 
L 102.64071 242.41497 
L 103.541109 246.281705 
L 104.291441 248.672608 
L 104.966741 250.123153 
L 105.491973 250.766656 
L 105.942173 250.968365 
L 106.317339 250.884042 
L 106.692506 250.566633 
L 107.142705 249.874602 
L 107.667938 248.635052 
L 108.268204 246.647513 
L 109.018537 243.313428 
L 109.843902 238.580368 
L 110.819335 231.614283 
L 111.944834 221.88026 
L 113.295432 208.141198 
L 115.021197 188.159177 
L 120.573659 121.96449 
L 121.924257 109.456071 
L 122.974723 101.600788 
L 123.875122 96.36803 
L 124.625455 93.153468 
L 125.300754 91.194895 
L 125.825987 90.30016 
L 126.201153 90.002217 
L 126.576319 89.989964 
L 126.951486 90.263448 
L 127.401685 90.967273 
L 127.926918 92.301273 
L 128.527184 94.489746 
L 129.277517 98.189404 
L 130.102882 103.432942 
L 131.078315 111.087446 
L 132.278847 122.400248 
L 133.779512 138.853328 
L 136.03051 166.341379 
L 139.181907 204.472888 
L 140.757605 220.866421 
L 142.033171 231.950341 
L 143.083636 239.323311 
L 143.984035 244.260087 
L 144.809401 247.609936 
L 145.484701 249.497389 
L 146.009933 250.432761 
L 146.460133 250.86601 
L 146.835299 250.970192 
L 147.210466 250.84432 
L 147.660665 250.395433 
L 148.185898 249.472097 
L 148.786164 247.910093 
L 149.536497 245.240028 
L 150.436896 241.070697 
L 151.487361 235.040407 
L 152.762927 226.348278 
L 154.563725 212.344839 
L 159.365854 174.139249 
L 160.866519 164.363274 
L 162.142084 157.484697 
L 163.19255 152.931185 
L 164.167982 149.649522 
L 164.993348 147.59484 
L 165.743681 146.296203 
L 166.343947 145.638725 
L 166.86918 145.333022 
L 167.394412 145.269962 
L 167.919645 145.439438 
L 168.519911 145.903118 
L 169.195211 146.746166 
L 169.945543 148.047101 
L 170.845942 150.05419 
L 171.971441 153.130555 
L 173.472106 157.948465 
L 176.248337 167.820993 
L 178.649401 175.988831 
L 179.924967 179.791571 
L 179.924967 179.791571 
" clip-path="url(#pca89526547)" style="fill: none; stroke: #1f77b4; stroke-width: 22"/>
   </g>
   <g id="line2d_2">
    <path d="M 180 180 
L 181.500665 184.488079 
L 183.45153 191.110535 
L 187.878492 206.419525 
L 189.154058 209.94581 
L 190.204523 212.241805 
L 191.029889 213.570999 
L 191.705188 214.303433 
L 192.305455 214.660963 
L 192.830687 214.732108 
L 193.35592 214.566212 
L 193.881153 214.153788 
L 194.481419 213.370458 
L 195.156718 212.080695 
L 195.907051 210.130859 
L 196.732417 207.353949 
L 197.707849 203.22911 
L 198.833348 197.381812 
L 200.108914 189.469441 
L 201.609579 178.703008 
L 203.785543 161.27278 
L 207.16204 134.201179 
L 208.662705 124.02908 
L 209.788204 117.79442 
L 210.763636 113.599757 
L 211.513969 111.242892 
L 212.189268 109.825053 
L 212.714501 109.208114 
L 213.089667 109.036697 
L 213.464834 109.09458 
L 213.84 109.385208 
L 214.2902 110.044789 
L 214.815432 111.246273 
L 215.415698 113.190376 
L 216.166031 116.470902 
L 216.991397 121.146934 
L 217.966829 128.049659 
L 219.092328 137.718215 
L 220.442927 151.392929 
L 222.168692 171.320873 
L 227.796186 238.360902 
L 229.071752 250.186211 
L 230.122217 258.114281 
L 231.022616 263.416153 
L 231.772949 266.691936 
L 232.448248 268.707623 
L 232.973481 269.647638 
L 233.423681 270.010036 
L 233.798847 269.997783 
L 234.174013 269.69984 
L 234.624213 268.966856 
L 235.149446 267.599299 
L 235.749712 265.373388 
L 236.500044 261.628824 
L 237.32541 256.339062 
L 238.300843 248.635297 
L 239.501375 237.271518 
L 241.00204 220.772227 
L 243.328071 192.315479 
L 246.329401 156.00762 
L 247.9051 139.543083 
L 249.180665 128.385717 
L 250.231131 120.944312 
L 251.13153 115.944973 
L 251.956896 112.535921 
L 252.632195 110.599522 
L 253.232461 109.525055 
L 253.682661 109.115958 
L 254.057827 109.031635 
L 254.432993 109.177047 
L 254.883193 109.648862 
L 255.408426 110.598088 
L 256.008692 112.188336 
L 256.759024 114.89135 
L 257.659424 119.096232 
L 258.709889 125.161768 
L 259.985455 133.88675 
L 261.786253 147.916833 
L 266.513348 185.558045 
L 268.014013 195.381339 
L 269.289579 202.307556 
L 270.340044 206.903451 
L 271.315477 210.225653 
L 272.140843 212.314674 
L 272.891175 213.643989 
L 273.566475 214.387132 
L 274.091707 214.677717 
L 274.61694 214.726235 
L 275.142173 214.542881 
L 275.742439 214.064252 
L 276.417738 213.205669 
L 277.243104 211.738163 
L 278.218537 209.487008 
L 279.419069 206.093161 
L 280.994767 200.908418 
L 286.772328 181.183879 
L 287.147494 180.118881 
L 287.147494 180.118881 
" clip-path="url(#pca89526547)" style="fill: none; stroke: #ff7f0e; stroke-width: 22"/>
   </g>
   <g id="line2d_3">
    <path d="M 66.174545 180 
L 320.237162 180 
L 320.237162 180 
" clip-path="url(#pca89526547)" style="fill: none; stroke: #696969; stroke-width: 7.333333; stroke-linecap: square"/>
   </g>
   <g id="patch_3">
    <path d="M 313.210453 103.090909 
C 303.91546 86.991509 291.778408 72.709702 277.389134 60.939555 
C 262.99986 49.169407 246.595298 40.104729 228.972677 34.186043 
C 211.350057 28.267358 192.799554 25.592124 174.222685 26.290353 
C 155.645816 26.988581 137.34847 31.048774 120.219861 38.273616 
C 103.091252 45.498457 87.413421 55.768981 73.94828 68.586061 
C 60.483139 81.403142 49.452405 96.555731 41.39215 113.307444 
C 33.331896 130.059156 28.374841 148.134157 26.76189 166.654038 
C 25.148939 185.173918 26.906649 203.833728 31.949601 221.726637 
C 36.992552 239.619547 45.237706 256.450931 56.284366 271.402817 
C 67.331025 286.354703 80.997295 299.180892 96.619021 309.258057 
C 112.240746 319.335222 129.5607 326.497432 147.737167 330.396618 
C 165.913633 334.295803 184.647317 334.86776 203.027799 332.084692 
C 221.408281 329.301624 239.132906 323.209358 255.340293 314.103965 
C 271.54768 304.998572 285.970957 293.029982 297.909181 278.779846 
C 309.847406 264.52971 319.104001 248.232671 325.229117 230.680733 
C 331.354232 213.128794 334.24701 194.610968 333.766868 176.027184 
" clip-path="url(#pca89526547)" style="fill: none; stroke: #808080; stroke-width: 22; stroke-linejoin: miter"/>
   </g>
   <g id="patch_4">
    <path d="M 333.765472 175.973509 
C 333.431234 163.209464 331.50898 150.536557 328.043115 138.247524 
C 324.577249 125.95849 319.594663 114.148686 313.210453 103.090909 
" clip-path="url(#pca89526547)" style="fill: none; stroke: #ffffff; stroke-width: 22; stroke-linejoin: miter"/>
   </g>
  </g>
 </g>
 <defs>
  <clipPath id="pca89526547">
   <rect x="10.8" y="10.8" width="338.4" height="338.4"/>
  </clipPath>
 </defs>
</svg>
